<svg xmlns="http://www.w3.org/2000/svg" xmlns:xlink="http://www.w3.org/1999/xlink" width="500" zoomAndPan="magnify" viewBox="0 0 375 374.999991" height="500" preserveAspectRatio="xMidYMid meet" version="1.0"><defs><g/><clipPath id="96686a8ed0"><path d="M 37.496094 75.121094 L 337.496094 75.121094 L 337.496094 300 L 37.496094 300 Z M 37.496094 75.121094 " clip-rule="nonzero"/></clipPath><clipPath id="a812cf3981"><path d="M 337.496094 112.621094 L 337.496094 262.378906 C 337.496094 272.324219 333.542969 281.859375 326.511719 288.894531 C 319.480469 295.925781 309.941406 299.875 299.996094 299.875 L 75 299.875 C 65.054688 299.875 55.515625 295.925781 48.484375 288.894531 C 41.453125 281.859375 37.5 272.324219 37.5 262.378906 L 37.5 112.621094 C 37.5 102.675781 41.453125 93.140625 48.484375 86.105469 C 55.515625 79.074219 65.054688 75.121094 75 75.121094 L 299.996094 75.121094 C 309.941406 75.121094 319.480469 79.074219 326.511719 86.105469 C 333.542969 93.140625 337.496094 102.675781 337.496094 112.621094 Z M 337.496094 112.621094 " clip-rule="nonzero"/></clipPath><clipPath id="229d46c96d"><path d="M 37.5 187.5 L 150 187.5 L 150 300 L 37.5 300 Z M 37.5 187.5 " clip-rule="nonzero"/></clipPath><clipPath id="6fe6acbc05"><path d="M 93.75 187.5 C 62.683594 187.5 37.5 212.683594 37.5 243.75 C 37.5 274.816406 62.683594 300 93.75 300 C 124.816406 300 150 274.816406 150 243.75 C 150 212.683594 124.816406 187.5 93.75 187.5 Z M 93.75 187.5 " clip-rule="nonzero"/></clipPath><clipPath id="48dacc8481"><path d="M 224.992188 110.871094 L 337.492188 110.871094 L 337.492188 299.871094 L 224.992188 299.871094 Z M 224.992188 110.871094 " clip-rule="nonzero"/></clipPath><clipPath id="b49a002224"><path d="M 299.996094 299.871094 L 262.246094 299.871094 C 252.300781 299.871094 242.761719 295.917969 235.730469 288.886719 C 228.699219 281.855469 224.746094 272.316406 224.746094 262.371094 L 224.746094 148.109375 C 224.746094 138.164062 228.699219 128.628906 235.730469 121.59375 C 242.761719 114.5625 252.300781 110.613281 262.246094 110.613281 L 299.996094 110.613281 C 309.941406 110.613281 319.480469 114.5625 326.511719 121.59375 C 333.542969 128.628906 337.492188 138.164062 337.492188 148.109375 L 337.492188 262.371094 C 337.492188 272.316406 333.542969 281.855469 326.511719 288.886719 C 319.480469 295.917969 309.941406 299.871094 299.996094 299.871094 Z M 299.996094 299.871094 " clip-rule="nonzero"/></clipPath><clipPath id="cc3f95887c"><path d="M 37.503906 136.371094 L 149.996094 136.371094 L 149.996094 299.871094 L 37.503906 299.871094 Z M 37.503906 136.371094 " clip-rule="nonzero"/></clipPath><clipPath id="712e5a34e5"><path d="M 112.5 299.871094 L 75 299.871094 C 65.054688 299.871094 55.519531 295.921875 48.484375 288.890625 C 41.453125 281.855469 37.503906 272.320312 37.503906 262.375 L 37.503906 173.566406 C 37.503906 163.621094 41.453125 154.082031 48.484375 147.050781 C 55.519531 140.019531 65.054688 136.066406 75 136.066406 L 112.5 136.066406 C 122.445312 136.066406 131.980469 140.019531 139.015625 147.050781 C 146.046875 154.082031 149.996094 163.621094 149.996094 173.566406 L 149.996094 262.375 C 149.996094 272.320312 146.046875 281.855469 139.015625 288.890625 C 131.980469 295.921875 122.445312 299.871094 112.5 299.871094 Z M 112.5 299.871094 " clip-rule="nonzero"/></clipPath><clipPath id="600d797691"><path d="M 131.371094 194.121094 L 243.867188 194.121094 L 243.867188 299.871094 L 131.371094 299.871094 Z M 131.371094 194.121094 " clip-rule="nonzero"/></clipPath><clipPath id="3afefcf31a"><path d="M 206.371094 299.871094 L 168.621094 299.871094 C 158.675781 299.871094 149.140625 295.921875 142.109375 288.890625 C 135.074219 281.855469 131.125 272.320312 131.125 262.375 L 131.125 231.6875 C 131.125 221.746094 135.074219 212.207031 142.109375 205.175781 C 149.140625 198.140625 158.675781 194.191406 168.621094 194.191406 L 206.371094 194.191406 C 216.316406 194.191406 225.855469 198.140625 232.886719 205.175781 C 239.917969 212.207031 243.867188 221.746094 243.867188 231.6875 L 243.867188 262.375 C 243.867188 272.320312 239.917969 281.855469 232.886719 288.890625 C 225.855469 295.921875 216.316406 299.871094 206.371094 299.871094 Z M 206.371094 299.871094 " clip-rule="nonzero"/></clipPath></defs><g clip-path="url(#96686a8ed0)"><g clip-path="url(#a812cf3981)"><path stroke-linecap="butt" transform="matrix(0, 0.75, -0.75, 0, 337.495266, 75.123043)" fill="none" stroke-linejoin="miter" d="M 49.997404 -0.00110322 L 249.674501 -0.00110322 C 262.934918 -0.00110322 275.648461 5.26973 285.02867 14.644731 C 294.40367 24.019732 299.669296 36.738483 299.669296 49.9989 L 299.669296 349.993711 C 299.669296 363.254129 294.40367 375.97288 285.02867 385.34788 C 275.648461 394.722881 262.934918 399.993715 249.674501 399.993715 L 49.997404 399.993715 C 36.736987 399.993715 24.023444 394.722881 14.643235 385.34788 C 5.268235 375.97288 -0.00259909 363.254129 -0.00259909 349.993711 L -0.00259909 49.9989 C -0.00259909 36.738483 5.268235 24.019732 14.643235 14.644731 C 24.023444 5.26973 36.736987 -0.00110322 49.997404 -0.00110322 Z M 49.997404 -0.00110322 " stroke="#8c8c8c" stroke-width="50" stroke-opacity="1" stroke-miterlimit="4"/></g></g><g clip-path="url(#229d46c96d)"><g clip-path="url(#6fe6acbc05)"><path stroke-linecap="butt" transform="matrix(0.75, 0, 0, 0.75, 37.500002, 187.499988)" fill="none" stroke-linejoin="miter" d="M 75.000002 0.0000164167 C 33.578124 0.0000164167 -0.00000271667 33.578144 -0.00000271667 75.000021 C -0.00000271667 116.421899 33.578124 150.000026 75.000002 150.000026 C 116.42188 150.000026 150.000007 116.421899 150.000007 75.000021 C 150.000007 33.578144 116.42188 0.0000164167 75.000002 0.0000164167 Z M 75.000002 0.0000164167 " stroke="#8c8c8c" stroke-width="50" stroke-opacity="1" stroke-miterlimit="4"/></g></g><g fill="#8c8c8c" fill-opacity="1"><g transform="translate(79.173887, 270.659529)"><g><path d="M 12.390625 -12.390625 L 12.390625 -6.34375 C 12.390625 -4.5625 11.8125 -3.046875 10.65625 -1.796875 C 9.5 -0.546875 8.035156 0.078125 6.265625 0.078125 C 4.535156 0.078125 3.046875 -0.546875 1.796875 -1.796875 C 0.546875 -3.046875 -0.078125 -4.5625 -0.078125 -6.34375 L -0.078125 -39.8125 C -0.078125 -41.78125 0.398438 -43.566406 1.359375 -45.171875 C 2.328125 -46.785156 3.625 -48.070312 5.25 -49.03125 C 6.882812 -49.988281 8.660156 -50.46875 10.578125 -50.46875 L 20.15625 -50.46875 C 22.988281 -50.46875 25.460938 -49.484375 27.578125 -47.515625 L 34.484375 -40.609375 C 35.640625 -39.554688 36.457031 -38.164062 36.9375 -36.4375 C 37.414062 -34.707031 37.609375 -32.878906 37.515625 -30.953125 C 37.421875 -29.035156 37.0625 -27.222656 36.4375 -25.515625 C 35.8125 -23.816406 34.945312 -22.441406 33.84375 -21.390625 L 27.578125 -15.40625 C 25.554688 -13.394531 23.082031 -12.390625 20.15625 -12.390625 Z M 24.484375 -24.984375 L 24.484375 -37.875 L 12.53125 -38.015625 L 12.53125 -24.984375 Z M 24.484375 -24.984375 "/></g></g></g><g clip-path="url(#48dacc8481)"><g clip-path="url(#b49a002224)"><path stroke-linecap="butt" transform="matrix(-0.75, 0, 0, -0.75, 337.49386, 299.8692)" fill="none" stroke-linejoin="miter" d="M 49.997025 -0.00252566 L 100.330362 -0.00252566 C 113.590779 -0.00252566 126.30953 5.268308 135.68453 14.643309 C 145.059531 24.018309 150.330365 36.73706 150.330365 49.997478 L 150.330365 202.346446 C 150.330365 215.606864 145.059531 228.320406 135.68453 237.700615 C 126.30953 247.075616 113.590779 252.341241 100.330362 252.341241 L 49.997025 252.341241 C 36.736607 252.341241 24.017856 247.075616 14.642856 237.700615 C 5.267855 228.320406 0.00222992 215.606864 0.00222992 202.346446 L 0.00222992 49.997478 C 0.00222992 36.73706 5.267855 24.018309 14.642856 14.643309 C 24.017856 5.268308 36.736607 -0.00252566 49.997025 -0.00252566 Z M 49.997025 -0.00252566 " stroke="#8c8c8c" stroke-width="50" stroke-opacity="1" stroke-miterlimit="4"/></g></g><g clip-path="url(#cc3f95887c)"><g clip-path="url(#712e5a34e5)"><path stroke-linecap="butt" transform="matrix(-0.75, 0, 0, -0.75, 149.997753, 299.872423)" fill="none" stroke-linejoin="miter" d="M 49.997004 0.00177194 L 99.997004 0.00177194 C 113.257421 0.00177194 125.970963 5.267397 135.351171 14.642397 C 144.726171 24.022605 149.991796 36.736147 149.991796 49.996564 L 149.991796 168.408022 C 149.991796 181.668439 144.726171 194.387189 135.351171 203.762189 C 125.970963 213.137189 113.257421 218.408022 99.997004 218.408022 L 49.997004 218.408022 C 36.736587 218.408022 24.023046 213.137189 14.642837 203.762189 C 5.267837 194.387189 0.0022124 181.668439 0.0022124 168.408022 L 0.0022124 49.996564 C 0.0022124 36.736147 5.267837 24.022605 14.642837 14.642397 C 24.023046 5.267397 36.736587 0.00177194 49.997004 0.00177194 Z M 49.997004 0.00177194 " stroke="#8c8c8c" stroke-width="50" stroke-opacity="1" stroke-miterlimit="4"/></g></g><g clip-path="url(#600d797691)"><g clip-path="url(#3afefcf31a)"><path stroke-linecap="butt" transform="matrix(-0.75, 0, 0, -0.75, 243.86911, 299.871631)" fill="none" stroke-linejoin="miter" d="M 49.997362 0.000715945 L 100.330701 0.000715945 C 113.59112 0.000715945 126.304663 5.266342 135.679664 14.641343 C 145.059874 24.021552 150.3255 36.735096 150.3255 49.995514 L 150.3255 90.912186 C 150.3255 104.167396 145.059874 116.886148 135.679664 126.261149 C 126.304663 135.641359 113.59112 140.906984 100.330701 140.906984 L 49.997362 140.906984 C 36.736943 140.906984 24.018192 135.641359 14.64319 126.261149 C 5.268189 116.886148 0.00256345 104.167396 0.00256345 90.912186 L 0.00256345 49.995514 C 0.00256345 36.735096 5.268189 24.021552 14.64319 14.641343 C 24.018192 5.266342 36.736943 0.000715945 49.997362 0.000715945 Z M 49.997362 0.000715945 " stroke="#8c8c8c" stroke-width="50" stroke-opacity="1" stroke-miterlimit="4"/></g></g></svg>