<svg xmlns="http://www.w3.org/2000/svg" xmlns:xlink="http://www.w3.org/1999/xlink" width="500" zoomAndPan="magnify" viewBox="0 0 375 374.999991" height="500" preserveAspectRatio="xMidYMid meet" version="1.0"><defs><clipPath id="cee21428bd"><path d="M 149.71875 37.5 L 337.21875 37.5 L 337.21875 225 L 149.71875 225 Z M 149.71875 37.5 " clip-rule="nonzero"/></clipPath><clipPath id="7b80c9713d"><path d="M 243.609375 37.5 C 191.753906 37.5 149.71875 79.535156 149.71875 131.390625 C 149.71875 183.246094 191.753906 225.28125 243.609375 225.28125 C 295.460938 225.28125 337.5 183.246094 337.5 131.390625 C 337.5 79.535156 295.460938 37.5 243.609375 37.5 Z M 243.609375 37.5 " clip-rule="nonzero"/></clipPath><clipPath id="bf811913a1"><path d="M 37 174 L 204 174 L 204 341 L 37 341 Z M 37 174 " clip-rule="nonzero"/></clipPath><clipPath id="7e017601ce"><path d="M 172.222656 174.558594 L 203.832031 206.167969 L 69.105469 340.894531 L 37.496094 309.285156 Z M 172.222656 174.558594 " clip-rule="nonzero"/></clipPath></defs><g clip-path="url(#cee21428bd)"><g clip-path="url(#7b80c9713d)"><path stroke-linecap="butt" transform="matrix(0.75, 0, 0, 0.75, 149.717865, 37.499998)" fill="none" stroke-linejoin="miter" d="M 125.188688 0.00000328333 C 56.048059 0.00000328333 0.00117991 56.046882 0.00117991 125.187512 C 0.00117991 194.328141 56.048059 250.37502 125.188688 250.37502 C 194.324109 250.37502 250.376196 194.328141 250.376196 125.187512 C 250.376196 56.046882 194.324109 0.00000328333 125.188688 0.00000328333 Z M 125.188688 0.00000328333 " stroke="#8c8c8c" stroke-width="50" stroke-opacity="1" stroke-miterlimit="4"/></g></g><g clip-path="url(#bf811913a1)"><g clip-path="url(#7e017601ce)"><path fill="#8c8c8c" d="M 172.222656 174.558594 L 203.832031 206.167969 L 69.128906 340.871094 L 37.519531 309.261719 Z M 172.222656 174.558594 " fill-opacity="1" fill-rule="nonzero"/></g></g></svg>