<svg xmlns="http://www.w3.org/2000/svg" xmlns:xlink="http://www.w3.org/1999/xlink" width="500" zoomAndPan="magnify" viewBox="0 0 375 374.999991" height="500" preserveAspectRatio="xMidYMid meet" version="1.0"><defs><clipPath id="d86a38dfe0"><path d="M 75.121094 37.503906 L 300 37.503906 L 300 337.5 L 75.121094 337.5 Z M 75.121094 37.503906 " clip-rule="nonzero"/></clipPath><clipPath id="60ca296107"><path d="M 112.621094 37.503906 L 262.375 37.503906 C 272.320312 37.503906 281.859375 41.453125 288.890625 48.484375 C 295.925781 55.519531 299.875 65.054688 299.875 75.003906 L 299.875 299.996094 C 299.875 309.945312 295.925781 319.480469 288.890625 326.515625 C 281.859375 333.546875 272.320312 337.496094 262.375 337.496094 L 112.621094 337.496094 C 102.675781 337.496094 93.136719 333.546875 86.105469 326.515625 C 79.070312 319.480469 75.121094 309.945312 75.121094 299.996094 L 75.121094 75.003906 C 75.121094 65.054688 79.070312 55.519531 86.105469 48.484375 C 93.136719 41.453125 102.675781 37.503906 112.621094 37.503906 Z M 112.621094 37.503906 " clip-rule="nonzero"/></clipPath></defs><g clip-path="url(#d86a38dfe0)"><g clip-path="url(#60ca296107)"><path stroke-linecap="butt" transform="matrix(0.75, 0, 0, 0.75, 75.121032, 37.502678)" fill="none" stroke-linejoin="miter" d="M 50.000086 0.00163754 L 249.671974 0.00163754 C 262.932392 0.00163754 275.651143 5.267263 285.026143 14.642263 C 294.406352 24.022472 299.671978 36.736015 299.671978 50.001641 L 299.671978 349.991244 C 299.671978 363.25687 294.406352 375.970412 285.026143 385.350621 C 275.651143 394.725622 262.932392 399.991247 249.671974 399.991247 L 50.000086 399.991247 C 36.739669 399.991247 24.020918 394.725622 14.645917 385.350621 C 5.265708 375.970412 0.0000829106 363.25687 0.0000829106 349.991244 L 0.0000829106 50.001641 C 0.0000829106 36.736015 5.265708 24.022472 14.645917 14.642263 C 24.020918 5.267263 36.739669 0.00163754 50.000086 0.00163754 Z M 50.000086 0.00163754 " stroke="#8c8c8c" stroke-width="50" stroke-opacity="1" stroke-miterlimit="4"/></g></g><path stroke-linecap="round" transform="matrix(0.75, 0, 0, 0.75, 110.105176, 74.26265)" fill="none" stroke-linejoin="miter" d="M 12.500391 12.498759 L 147.500399 12.498759 " stroke="#8c8c8c" stroke-width="25" stroke-opacity="1" stroke-miterlimit="4"/><path stroke-linecap="round" transform="matrix(0.75, 0.000000000000000152, -0.000000000000000152, 0.75, 110.105176, 111.407834)" fill="none" stroke-linejoin="miter" d="M 12.500391 12.497888 L 127.708731 12.497888 " stroke="#8c8c8c" stroke-width="25" stroke-opacity="1" stroke-miterlimit="4"/><path stroke-linecap="round" transform="matrix(0.75, 0, 0, 0.75, 110.105176, 148.907832)" fill="none" stroke-linejoin="miter" d="M 12.500391 12.497892 L 195.588944 12.497892 " stroke="#8c8c8c" stroke-width="25" stroke-opacity="1" stroke-miterlimit="4"/><path stroke-linecap="round" transform="matrix(0.75, 0, 0, 0.75, 110.105176, 186.407829)" fill="none" stroke-linejoin="miter" d="M 12.500391 12.497895 L 90.693104 12.497895 " stroke="#8c8c8c" stroke-width="25" stroke-opacity="1" stroke-miterlimit="4"/><path stroke-linecap="round" transform="matrix(0.75, 0.000000000000000215, -0.000000000000000215, 0.75, 110.105176, 223.907827)" fill="none" stroke-linejoin="miter" d="M 12.500391 12.497898 L 185.406652 12.497898 " stroke="#8c8c8c" stroke-width="25" stroke-opacity="1" stroke-miterlimit="4"/></svg>