<svg xmlns="http://www.w3.org/2000/svg" xmlns:xlink="http://www.w3.org/1999/xlink" width="500" zoomAndPan="magnify" viewBox="0 0 375 374.999991" height="500" preserveAspectRatio="xMidYMid meet" version="1.0"><defs><clipPath id="c7ee3ca609"><path d="M 120.058594 161.226562 L 254.941406 161.226562 L 254.941406 375 L 120.058594 375 Z M 120.058594 161.226562 " clip-rule="nonzero"/></clipPath><clipPath id="d9e316c1c8"><path d="M 142.558594 161.226562 L 232.441406 161.226562 C 244.867188 161.226562 254.941406 171.300781 254.941406 183.726562 L 254.941406 352.5 C 254.941406 364.925781 244.867188 375 232.441406 375 L 142.558594 375 C 130.132812 375 120.058594 364.925781 120.058594 352.5 L 120.058594 183.726562 C 120.058594 171.300781 130.132812 161.226562 142.558594 161.226562 Z M 142.558594 161.226562 " clip-rule="nonzero"/></clipPath><clipPath id="4bf27880eb"><path d="M 63 11 L 311.894531 11 L 311.894531 187.5 L 63 187.5 Z M 63 11 " clip-rule="nonzero"/></clipPath><clipPath id="2271e462ee"><path d="M 200.640625 18.265625 L 309.246094 169.234375 C 311.769531 172.746094 312.117188 177.378906 310.144531 181.226562 C 308.171875 185.078125 304.210938 187.5 299.882812 187.5 L 75.117188 187.5 C 70.789062 187.5 66.828125 185.078125 64.855469 181.226562 C 62.882812 177.378906 63.230469 172.746094 65.753906 169.234375 L 174.359375 18.265625 C 177.402344 14.035156 182.292969 11.53125 187.5 11.53125 C 192.707031 11.53125 197.597656 14.035156 200.640625 18.265625 Z M 200.640625 18.265625 " clip-rule="nonzero"/></clipPath></defs><g clip-path="url(#c7ee3ca609)"><g clip-path="url(#d9e316c1c8)"><path fill="#8c8c8c" d="M 120.058594 161.226562 L 254.941406 161.226562 L 254.941406 375.144531 L 120.058594 375.144531 Z M 120.058594 161.226562 " fill-opacity="1" fill-rule="nonzero"/></g></g><g clip-path="url(#4bf27880eb)"><g clip-path="url(#2271e462ee)"><path fill="#8c8c8c" d="M 52.617188 0 L 322.148438 0 L 322.148438 187.5 L 52.617188 187.5 Z M 52.617188 0 " fill-opacity="1" fill-rule="nonzero"/></g></g></svg>