<svg xmlns="http://www.w3.org/2000/svg" xmlns:xlink="http://www.w3.org/1999/xlink" width="500" zoomAndPan="magnify" viewBox="0 0 375 374.999991" height="500" preserveAspectRatio="xMidYMid meet" version="1.0"><defs><clipPath id="d8c98dc8e5"><path d="M 120.058594 0 L 254.941406 0 L 254.941406 213.773438 L 120.058594 213.773438 Z M 120.058594 0 " clip-rule="nonzero"/></clipPath><clipPath id="1adb5f2c4e"><path d="M 232.441406 213.773438 L 142.558594 213.773438 C 130.132812 213.773438 120.058594 203.699219 120.058594 191.273438 L 120.058594 22.5 C 120.058594 10.074219 130.132812 0 142.558594 0 L 232.441406 0 C 244.867188 0 254.941406 10.074219 254.941406 22.5 L 254.941406 191.273438 C 254.941406 203.699219 244.867188 213.773438 232.441406 213.773438 Z M 232.441406 213.773438 " clip-rule="nonzero"/></clipPath><clipPath id="2631ea7055"><path d="M 63.105469 187.5 L 312 187.5 L 312 364 L 63.105469 364 Z M 63.105469 187.5 " clip-rule="nonzero"/></clipPath><clipPath id="53f56f0659"><path d="M 174.359375 356.734375 L 65.753906 205.765625 C 63.230469 202.253906 62.882812 197.621094 64.855469 193.773438 C 66.828125 189.921875 70.789062 187.5 75.117188 187.5 L 299.882812 187.5 C 304.210938 187.5 308.171875 189.921875 310.144531 193.773438 C 312.117188 197.621094 311.769531 202.253906 309.246094 205.765625 L 200.640625 356.734375 C 197.597656 360.964844 192.707031 363.46875 187.5 363.46875 C 182.292969 363.46875 177.402344 360.964844 174.359375 356.734375 Z M 174.359375 356.734375 " clip-rule="nonzero"/></clipPath></defs><g clip-path="url(#d8c98dc8e5)"><g clip-path="url(#1adb5f2c4e)"><path fill="#8c8c8c" d="M 254.941406 213.773438 L 120.058594 213.773438 L 120.058594 -0.144531 L 254.941406 -0.144531 Z M 254.941406 213.773438 " fill-opacity="1" fill-rule="nonzero"/></g></g><g clip-path="url(#2631ea7055)"><g clip-path="url(#53f56f0659)"><path fill="#8c8c8c" d="M 322.382812 375 L 52.851562 375 L 52.851562 187.5 L 322.382812 187.5 Z M 322.382812 375 " fill-opacity="1" fill-rule="nonzero"/></g></g></svg>